# xmcd
#
# Track frame offsets:
#	150
#	12241
#	23511
#	34873
#	46366
#	55469
#	68982
#	80963
#	93173
#
# Disc length: 1400 seconds
#
# Revision: 1
# Processed by: cddbd v1.5.2PL0 Copyright (c) Steve Scherf et al.
# Submitted via: audiograbber 1.83.01
#
DISCID=70057609
DTITLE=Jean Shepard - Under Your Spell Again
DYEAR=1969
DGENRE=Country
TTITLE0=Under Your Spell Again
TTITLE1=The Color Song
TTITLE2=If You Haven't, You Can't Feel The Way I Do
TTITLE3=Go On With Your Dancing
TTITLE4=I'd Like To Know
TTITLE5=Waltz Of The Angels
TTITLE6=So Wrong, So Fast
TTITLE7=Second Best (To An old Guitar)
TTITLE8=Blues Stay Away From Me
EXTD=
EXTT0=
EXTT1=
EXTT2=
EXTT3=
EXTT4=
EXTT5=
EXTT6=
EXTT7=
EXTT8=
PLAYORDER=
